<svg width="206" height="47" viewBox="0 0 206 47" fill="none" xmlns="http://www.w3.org/2000/svg">
<g clip-path="url(#clip0_294_207)">
<path d="M77.6754 26.7002H70.6686V11.7002H77.4752C80.5782 11.7002 82.38 13.2002 82.38 15.6002C82.38 17.4002 81.2789 18.6002 79.8776 19.0002C81.6793 19.4002 82.7804 20.9002 82.7804 22.6002C82.6803 25.1002 80.8785 26.7002 77.6754 26.7002ZM76.7745 14.6002H74.3722V17.7002H76.7745C77.9757 17.7002 78.6764 17.2002 78.6764 16.1002C78.5763 15.2002 77.9757 14.6002 76.7745 14.6002ZM76.9747 20.4002H74.2721V23.7002H77.0748C78.276 23.7002 78.9767 23.1002 78.9767 22.1002C78.9767 21.1002 78.1759 20.4002 76.9747 20.4002Z" fill="white"/>
<path d="M89.0865 14.6006C90.8882 14.6006 92.0894 15.4006 92.7901 16.5006V14.8006H96.4937V26.7006H92.7901V25.0006C92.0894 26.0006 90.8882 26.9006 89.0865 26.9006C86.1837 26.9006 83.8814 24.5006 83.8814 20.7006C83.8814 16.9006 86.1837 14.6006 89.0865 14.6006ZM90.1876 17.8006C88.7862 17.8006 87.585 18.8006 87.585 20.7006C87.585 22.6006 88.7862 23.7006 90.1876 23.7006C91.5889 23.7006 92.7901 22.7006 92.7901 20.7006C92.7901 18.8006 91.5889 17.8006 90.1876 17.8006Z" fill="white"/>
<path d="M107.204 20.2002C107.204 18.6002 106.303 17.7002 104.902 17.7002C103.5 17.7002 102.6 18.6002 102.6 20.2002V26.7002H98.896V14.8002H102.6V16.4002C103.3 15.4002 104.602 14.7002 106.203 14.7002C109.006 14.7002 110.808 16.6002 110.808 19.8002V26.8002H107.204V20.2002Z" fill="white"/>
<path d="M121.418 20.2002C121.418 18.6002 120.517 17.7002 119.116 17.7002C117.714 17.7002 116.813 18.6002 116.813 20.2002V26.7002H113.11V14.8002H116.813V16.4002C117.514 15.4002 118.815 14.7002 120.417 14.7002C123.22 14.7002 125.021 16.6002 125.021 19.8002V26.8002H121.418V20.2002Z" fill="white"/>
<path d="M132.729 26.9002C129.225 26.9002 126.723 24.5002 126.723 20.8002C126.723 17.0002 129.225 14.7002 132.729 14.7002C136.232 14.7002 138.735 17.0002 138.735 20.7002C138.735 21.0002 138.735 21.4002 138.635 21.8002H130.327C130.427 23.4002 131.428 24.1002 132.629 24.1002C133.63 24.1002 134.23 23.6002 134.531 22.9002H138.434C137.834 25.1002 135.732 26.9002 132.729 26.9002ZM130.327 19.6002H134.931C134.931 18.3002 133.93 17.5002 132.729 17.5002C131.428 17.5002 130.527 18.3002 130.327 19.6002Z" fill="white"/>
<path d="M144.04 26.7002H140.336V14.8002H144.04V16.8002C144.841 15.5002 146.142 14.7002 147.743 14.7002V18.6002H146.742C145.041 18.6002 144.04 19.2002 144.04 21.3002V26.7002Z" fill="white"/>
<path d="M159.655 21.3002H157.353V26.7002H153.649V11.7002H159.555C163.258 11.7002 165.06 13.8002 165.06 16.5002C165.16 19.0002 163.459 21.3002 159.655 21.3002ZM159.355 18.4002C160.856 18.4002 161.457 17.7002 161.457 16.5002C161.457 15.3002 160.856 14.6002 159.355 14.6002H157.353V18.4002H159.355Z" fill="white"/>
<path d="M172.167 26.9002C168.664 26.9002 166.161 24.5002 166.161 20.8002C166.161 17.0002 168.664 14.7002 172.167 14.7002C175.671 14.7002 178.173 17.0002 178.173 20.7002C178.173 21.0002 178.173 21.4002 178.073 21.8002H169.765C169.865 23.4002 170.866 24.1002 172.067 24.1002C173.068 24.1002 173.669 23.6002 173.969 22.9002H177.873C177.272 25.1002 175.17 26.9002 172.167 26.9002ZM169.765 19.6002H174.369C174.369 18.3002 173.368 17.5002 172.167 17.5002C170.866 17.5002 169.965 18.3002 169.765 19.6002Z" fill="white"/>
<path d="M184.379 14.6006C186.181 14.6006 187.382 15.4006 188.083 16.5006V14.8006H191.786V26.7006H188.083V25.0006C187.382 26.0006 186.181 26.9006 184.379 26.9006C181.476 26.9006 179.174 24.5006 179.174 20.7006C179.074 16.9006 181.476 14.6006 184.379 14.6006ZM185.48 17.8006C184.079 17.8006 182.878 18.8006 182.878 20.7006C182.878 22.6006 184.079 23.7006 185.48 23.7006C186.881 23.7006 188.083 22.7006 188.083 20.7006C188.083 18.8006 186.781 17.8006 185.48 17.8006Z" fill="white"/>
<path d="M194.189 10.9004H197.892V19.7004L201.496 14.8004H206L200.995 20.8004L206 26.8004H201.496L197.892 21.8004V26.8004H194.189V10.9004Z" fill="white"/>
<path d="M80.0777 40.6008H74.3722V46.8008H70.6686V31.8008H74.3722V37.7008H80.0777V31.8008H83.7813V46.8008H80.0777V40.6008Z" fill="white"/>
<path d="M91.4888 47.0008C87.9854 47.0008 85.483 44.6008 85.483 40.9008C85.483 37.1008 87.9854 34.8008 91.4888 34.8008C94.9922 34.8008 97.4947 37.1008 97.4947 40.8008C97.4947 41.1008 97.4947 41.5008 97.3946 41.9008H89.0865C89.1866 43.5008 90.1876 44.2008 91.3887 44.2008C92.3897 44.2008 92.9903 43.7008 93.2906 43.0008H97.0943C96.4937 45.2008 94.3917 47.0008 91.4888 47.0008ZM89.0865 39.7008H93.691C93.691 38.4008 92.69 37.6008 91.4888 37.6008C90.1876 37.6008 89.2867 38.4008 89.0865 39.7008Z" fill="white"/>
<path d="M103.701 34.7002C105.502 34.7002 106.704 35.5002 107.404 36.6002V34.9002H111.108V46.8002H107.404V45.1002C106.704 46.1002 105.502 47.0002 103.701 47.0002C100.798 47.0002 98.4956 44.6002 98.4956 40.8002C98.3955 37.1002 100.698 34.7002 103.701 34.7002ZM104.702 37.9002C103.3 37.9002 102.099 38.9002 102.099 40.8002C102.099 42.7002 103.3 43.8002 104.702 43.8002C106.103 43.8002 107.304 42.8002 107.304 40.8002C107.304 38.8002 106.103 37.9002 104.702 37.9002Z" fill="white"/>
<path d="M113.41 31H117.114V46.8H113.41V31Z" fill="white"/>
<path d="M120.117 37.9H118.615V34.9H120.117V32H123.82V34.9H126.223V37.9H123.82V42.7C123.82 43.4 124.121 43.7 124.921 43.7H126.223V46.8H124.321C121.818 46.8 120.117 45.8 120.117 42.6V37.9Z" fill="white"/>
<path d="M128.024 31H131.728V36.5C132.429 35.5 133.73 34.8 135.431 34.8C138.134 34.8 139.936 36.7 139.936 39.9V46.9H136.332V40.4C136.332 38.8 135.431 37.9 134.03 37.9C132.629 37.9 131.728 38.8 131.728 40.4V46.9H128.024V31Z" fill="white"/>
<path d="M57.1555 26.7004L46.8455 12.4004L42.8416 15.3004L51.0496 26.7004H57.1555Z" fill="white"/>
<path d="M5.90574 26.7L10.7104 15.4H17.7172L22.0214 5.8L31.3304 8L38.7376 18.3L42.8416 15.3L34.3333 3.6L19.1186 0L14.5141 10.4H7.40719L0.400391 26.7H5.90574Z" fill="white"/>
<path d="M57.656 31.7998H0V36.7998H57.656V31.7998Z" fill="white"/>
<path d="M57.656 41.7998H0V46.7998H57.656V41.7998Z" fill="white"/>
</g>
<defs>
<clipPath id="clip0_294_207">
<rect width="206" height="47" fill="white"/>
</clipPath>
</defs>
</svg>
