<svg width="1080" height="1080" viewBox="0 0 1080 1080" fill="none" xmlns="http://www.w3.org/2000/svg">
<g clip-path="url(#clip0_131_2067)">
<rect width="1080" height="1080" fill="url(#paint0_linear_131_2067)"/>
<path fill-rule="evenodd" clip-rule="evenodd" d="M950.403 145.903L950.541 146.035C983.163 177.492 1001.98 223.209 1001.65 268.709L1001.64 269.022C1000.65 319.907 996.352 380.299 991.593 433.588C1005.46 429.564 1019.93 427.494 1034.58 427.494C1071.73 427.494 1107.22 440.887 1135 464.402C1162.77 440.884 1198.25 427.494 1235.4 427.494C1276.96 427.494 1316.12 443.803 1345.43 473.279C1374.64 502.655 1391 541.642 1390.83 583.309L1390.83 887.104C1390.83 1005.68 1346.48 1109.24 1262.08 1185.49L1258.25 1188.9C1177.03 1260.7 1065.22 1300.94 943.854 1303.71L944.08 1303.72C938.814 1304.01 933.696 1304 929.404 1304C919.743 1304 887.219 1303 880.084 1302.72L880.443 1302.73C808.882 1300.93 715.979 1298.83 627.846 1262.02L628.414 1262.23C530.046 1225.98 455.932 1169.81 411.082 1094.03C364.021 1014.99 361.196 934.356 366.717 881.235L366.723 881.183C372.085 830.605 390.653 787.516 423.548 751.296C421.611 597.264 403.938 459.605 369.195 308.867L369.239 309.053C349.723 227.188 397.086 140.364 476.941 115.767L477.1 115.719L477.259 115.671C515.937 104.305 556.976 109.131 592.605 129.299L592.777 129.397C631.006 151.427 660.002 189.772 671.383 232.775C677.53 257.047 683.012 281.504 688.587 305.912C689.073 292.525 689.43 279.061 689.667 265.511C690.823 181.426 757.759 108.72 840.895 104.167L841.001 104.162L841.108 104.157C881.632 102.276 920.408 117.407 950.403 145.903ZM846.914 183.968L844.511 184.021L842.454 184.17C804.117 187.535 770.964 222.389 769.368 264.207L769.312 266.538L769.308 266.777C767.08 382.23 756.601 493.149 737.194 604.959C774.889 613.12 806.266 637.247 828.972 667.8C861.697 711.915 873.623 764.626 860.997 815.794C841.144 892.922 775.099 946.809 706.082 980.058C696.157 984.609 684.979 985.259 674.711 981.309C666.034 977.905 658.658 971.619 654.044 963.505C648.671 953.438 647.241 942.022 651.021 931.104C654.273 921.708 661.261 912.795 671.562 907.851C737.079 876.423 773.976 835.841 783.691 796.758L783.648 796.934C790.586 768.158 782.52 739.403 765.045 716.009C743.962 687.728 723 681.217 703.392 682.267C681.266 683.452 657.27 694.523 632.808 709.214L632.703 709.276C557.436 753.99 458.328 787.984 446.762 887.603C446.769 888.325 446.725 889.043 446.65 889.763C443.294 921.905 443.493 976.909 470.126 1033.13C496.382 1088.56 549.56 1147.83 657.07 1187.57L657.462 1187.69C657.632 1187.74 657.801 1187.8 657.97 1187.85L659.651 1188.41C660.196 1188.6 660.736 1188.8 661.268 1189.01C732.8 1218.34 809.959 1221 876.825 1222.55L882.372 1222.68L883.158 1222.71C902.339 1223.74 921.634 1224.25 940.843 1223.95L941.67 1223.94C1162.77 1218.61 1310.91 1078.65 1310.91 887.384L1310.73 801.782C1287.76 814.607 1261.64 821.684 1234.98 821.684C1197.83 821.684 1162.35 808.294 1134.57 784.783C1106.8 808.291 1071.31 821.684 1034.16 821.684C999.19 821.684 968.761 803.952 946.666 786.744C924.346 769.362 906.465 749.136 898.372 740.751C891.573 733.707 880.049 716.782 883.532 694.983C902.416 576.791 918.04 388.657 920.606 274.137L920.741 267.591C920.958 243.561 910.832 219.344 894.26 203.345L894.342 203.421C880.64 190.519 863.709 183.911 846.914 183.968ZM1235.12 507.702C1214.53 507.702 1194.84 516.361 1180.85 530.868C1186.95 547.761 1190.01 565.406 1190.01 583.486V666.392C1190.01 684.316 1187 702.154 1180.99 719.002C1195.09 733.739 1214.46 742.157 1235.19 742.176C1276.65 742.176 1310.63 708.196 1310.63 666.392V584.466C1310.63 581.708 1310.61 580.083 1310.51 578.572L1310.45 577.821L1310.42 577.415L1310.22 575.217C1306.25 537.286 1273.67 507.702 1235.12 507.702ZM1034.16 507.562C1015.34 507.562 997.361 514.693 983.334 527.643L981.368 529.51L981.33 529.868C974.815 587.427 967.838 640.956 960.937 685.949C969.785 718.829 999.867 742.176 1034.16 742.176C1075.68 742.176 1109.66 708.196 1109.66 666.392V583.345C1109.66 541.542 1075.68 507.562 1034.16 507.562ZM518.79 189.939C512.588 189.939 506.23 190.839 500.058 192.653L500.264 192.591C462.783 204.108 438.018 246.488 446.825 288.667L447.349 291.01C447.363 291.068 447.377 291.127 447.391 291.185C478.176 424.376 496.179 555.473 501.89 690.341C516.979 681.344 532.653 672.875 548.634 664.371C563.041 656.718 577.401 648.96 591.424 640.619C602.297 633.974 624.283 620.393 652.171 611.255C648.15 485.015 623.516 380.054 601.27 285.003C598.923 275.032 596.453 265.092 594.178 255.104C588.736 232.711 573.975 212.433 555.049 200.626L552.758 199.25C541.982 193.033 530.274 189.939 518.79 189.939Z" fill="url(#paint1_linear_131_2067)" fill-opacity="0.04"/>
<path d="M203.904 523.592C203.008 518.664 200.488 514.8 196.344 512C192.312 509.2 187.552 507.8 182.064 507.8C176.688 507.8 172.04 509.2 168.12 512C164.312 514.688 161.848 518.552 160.728 523.592H203.904ZM160.728 541.904C161.848 546.944 164.368 550.864 168.288 553.664C172.32 556.464 177.024 557.864 182.4 557.864C186.656 557.864 190.52 556.968 193.992 555.176C197.576 553.384 200.208 550.92 201.888 547.784L221.88 555.344C218.296 562.288 212.976 567.832 205.92 571.976C198.864 576.008 191.08 578.024 182.568 578.024C169.8 578.024 159.104 573.712 150.48 565.088C141.856 556.464 137.544 545.656 137.544 532.664C137.544 519.784 141.744 509.088 150.144 500.576C158.544 491.952 168.96 487.64 181.392 487.64C193.824 487.64 204.408 491.952 213.144 500.576C221.88 509.2 226.248 519.896 226.248 532.664C226.248 535.24 225.856 538.32 225.072 541.904H160.728ZM296.791 491H319.639L288.895 575H260.335L229.591 491H252.271L274.279 555.512L296.791 491ZM389.177 523.592C388.281 518.664 385.761 514.8 381.617 512C377.585 509.2 372.825 507.8 367.337 507.8C361.961 507.8 357.313 509.2 353.393 512C349.585 514.688 347.121 518.552 346.001 523.592H389.177ZM346.001 541.904C347.121 546.944 349.641 550.864 353.561 553.664C357.593 556.464 362.297 557.864 367.673 557.864C371.929 557.864 375.793 556.968 379.265 555.176C382.849 553.384 385.481 550.92 387.161 547.784L407.153 555.344C403.569 562.288 398.249 567.832 391.193 571.976C384.137 576.008 376.353 578.024 367.841 578.024C355.073 578.024 344.377 573.712 335.753 565.088C327.129 556.464 322.817 545.656 322.817 532.664C322.817 519.784 327.017 509.088 335.417 500.576C343.817 491.952 354.233 487.64 366.665 487.64C379.097 487.64 389.681 491.952 398.417 500.576C407.153 509.2 411.521 519.896 411.521 532.664C411.521 535.24 411.129 538.32 410.345 541.904H346.001ZM422.177 575V491H444.017V575H422.177ZM477.953 575V527.456C477.953 521.968 476.441 517.656 473.417 514.52C470.393 511.384 466.473 509.816 461.657 509.816C456.841 509.816 452.697 511.552 449.225 515.024C445.753 518.496 444.017 522.64 444.017 527.456H435.449C435.449 516.704 438.585 507.632 444.857 500.24C451.241 492.848 459.193 489.152 468.713 489.152C477.561 489.152 484.953 492.176 490.889 498.224C496.825 504.16 499.793 512.224 499.793 522.416V575H477.953ZM554.651 554.672H566.915V575H551.459C541.939 575 534.435 572.648 528.947 567.944C523.571 563.24 520.883 556.744 520.883 548.456V511.16H506.099V491H520.883V467.648L542.723 462.944V491H566.915V511.16H542.723V543.416C542.723 546.888 543.731 549.632 545.747 551.648C547.875 553.664 550.843 554.672 554.651 554.672ZM676.739 575V525.272C676.739 520.456 675.451 516.704 672.875 514.016C670.411 511.216 667.219 509.816 663.299 509.816C659.155 509.816 655.627 511.328 652.715 514.352C649.915 517.376 648.515 521.016 648.515 525.272H639.947C639.947 514.968 642.803 506.4 648.515 499.568C654.339 492.624 661.619 489.152 670.355 489.152C678.419 489.152 685.139 491.952 690.515 497.552C695.891 503.152 698.579 510.712 698.579 520.232V575H676.739ZM576.443 575V491H598.283V575H576.443ZM626.507 575V525.272C626.507 520.456 625.219 516.704 622.643 514.016C620.179 511.216 616.987 509.816 613.067 509.816C609.035 509.816 605.563 511.328 602.651 514.352C599.739 517.376 598.283 521.016 598.283 525.272H589.715C589.715 514.968 592.627 506.4 598.451 499.568C604.275 492.624 611.499 489.152 620.123 489.152C628.299 489.152 635.019 491.952 640.283 497.552C645.659 503.152 648.347 510.712 648.347 520.232V575H626.507ZM760.186 540.056L741.706 542.408C734.538 543.304 730.954 545.936 730.954 550.304C730.954 552.656 731.906 554.504 733.81 555.848C735.826 557.08 738.626 557.696 742.21 557.696C747.586 557.696 751.898 556.296 755.146 553.496C758.506 550.696 760.186 547 760.186 542.408H766.066C766.066 552.264 763.154 560.496 757.33 567.104C751.506 573.6 744.17 576.848 735.322 576.848C727.706 576.848 721.434 574.552 716.506 569.96C711.578 565.256 709.114 559.32 709.114 552.152C709.114 544.872 711.578 538.88 716.506 534.176C721.434 529.36 728.154 526.392 736.666 525.272L760.186 522.416V521.24C760.186 517.88 758.674 515.024 755.65 512.672C752.738 510.208 749.21 508.976 745.066 508.976C741.258 508.976 737.898 509.984 734.986 512C732.074 513.904 730.17 516.424 729.274 519.56L708.442 512.84C710.794 505.784 715.274 500.072 721.882 495.704C728.49 491.336 735.938 489.152 744.226 489.152C754.418 489.152 763.266 492.232 770.77 498.392C778.274 504.552 782.026 511.832 782.026 520.232V575H760.186V540.056ZM836.908 554.672H849.172V575H833.716C824.196 575 816.692 572.648 811.204 567.944C805.828 563.24 803.14 556.744 803.14 548.456V511.16H788.356V491H803.14V467.648L824.98 462.944V491H849.172V511.16H824.98V543.416C824.98 546.888 825.988 549.632 828.004 551.648C830.132 553.664 833.1 554.672 836.908 554.672ZM919.568 523.592C918.672 518.664 916.152 514.8 912.008 512C907.976 509.2 903.216 507.8 897.728 507.8C892.352 507.8 887.704 509.2 883.784 512C879.976 514.688 877.512 518.552 876.392 523.592H919.568ZM876.392 541.904C877.512 546.944 880.032 550.864 883.952 553.664C887.984 556.464 892.688 557.864 898.064 557.864C902.32 557.864 906.184 556.968 909.656 555.176C913.24 553.384 915.872 550.92 917.552 547.784L937.544 555.344C933.96 562.288 928.64 567.832 921.584 571.976C914.528 576.008 906.744 578.024 898.232 578.024C885.464 578.024 874.768 573.712 866.144 565.088C857.52 556.464 853.208 545.656 853.208 532.664C853.208 519.784 857.408 509.088 865.808 500.576C874.208 491.952 884.624 487.64 897.056 487.64C909.488 487.64 920.072 491.952 928.808 500.576C937.544 509.2 941.912 519.896 941.912 532.664C941.912 535.24 941.52 538.32 940.736 541.904H876.392Z" fill="white"/>
</g>
<defs>
<linearGradient id="paint0_linear_131_2067" x1="0" y1="0" x2="1080" y2="1080" gradientUnits="userSpaceOnUse">
<stop stop-color="#BD00FF"/>
<stop offset="1" stop-color="#4C43FF"/>
</linearGradient>
<linearGradient id="paint1_linear_131_2067" x1="877.751" y1="104" x2="877.751" y2="1304" gradientUnits="userSpaceOnUse">
<stop/>
<stop offset="1" stop-opacity="0.24"/>
</linearGradient>
<clipPath id="clip0_131_2067">
<rect width="1080" height="1080" fill="white"/>
</clipPath>
</defs>
</svg>
