<svg width="482" height="301" viewBox="0 0 482 301" fill="none" xmlns="http://www.w3.org/2000/svg">
<g clip-path="url(#clip0_406_170)">
<path d="M230.618 0.676594L343.995 0.698193L376.717 0.699791C389.8 0.695291 402.785 0.146393 415.61 3.26949C416.579 3.51116 417.544 3.76949 418.505 4.04449C419.466 4.31942 420.421 4.61089 421.371 4.91889C422.322 5.22683 423.267 5.55109 424.206 5.89169C425.145 6.23229 426.078 6.58899 427.005 6.96179C427.932 7.33459 428.852 7.72326 429.766 8.12779C430.679 8.53233 431.585 8.95253 432.484 9.38839C433.383 9.82419 434.275 10.2754 435.158 10.7421C436.041 11.2087 436.917 11.6904 437.784 12.1872C438.651 12.684 439.509 13.1956 440.358 13.7221C441.207 14.2486 442.047 14.7895 442.877 15.3449C443.708 15.9004 444.529 16.47 445.34 17.0537C446.151 17.6374 446.951 18.235 447.741 18.8464C448.532 19.4578 449.311 20.0827 450.08 20.721C450.849 21.3593 451.606 22.0107 452.352 22.6751C453.098 23.3396 453.833 24.0167 454.556 24.7066C455.279 25.3964 455.989 26.0985 456.688 26.8128C457.194 27.3187 457.694 27.8308 458.188 28.3491C458.681 28.8674 459.168 29.3918 459.648 29.9222C460.129 30.4527 460.603 30.989 461.07 31.5312C461.537 32.0734 461.998 32.6213 462.451 33.1749C462.904 33.7286 463.351 34.2877 463.791 34.8524C464.23 35.4171 464.663 35.9873 465.089 36.5628C465.514 37.1383 465.933 37.7189 466.344 38.3048C466.755 38.8907 467.158 39.4816 467.555 40.0775C467.952 40.6734 468.341 41.2741 468.722 41.8797C469.103 42.4852 469.477 43.0954 469.844 43.7103C470.21 44.3252 470.569 44.9445 470.92 45.5683C471.271 46.1921 471.614 46.8201 471.949 47.4524C472.284 48.0847 472.612 48.7211 472.932 49.3615C473.251 50.002 473.563 50.6463 473.866 51.2944C474.17 51.9426 474.466 52.5945 474.753 53.25C475.04 53.9055 475.319 54.5645 475.59 55.227C475.861 55.8895 476.124 56.5552 476.379 57.2242C476.633 57.8931 476.879 58.5652 477.117 59.2403C477.355 59.9154 477.584 60.5933 477.805 61.274C478.026 61.9547 478.239 62.6383 478.443 63.325C478.647 64.011 478.842 64.6993 479.029 65.39C479.216 66.0807 479.395 66.774 479.564 67.47C479.734 68.1653 479.895 68.8627 480.047 69.562C480.2 70.2613 480.343 70.9623 480.478 71.665C480.613 72.3683 480.74 73.073 480.857 73.779C480.974 74.485 481.083 75.1923 481.183 75.901C481.283 76.6097 481.374 77.3197 481.456 78.031C481.539 78.7417 481.612 79.4537 481.677 80.167C481.741 80.8797 481.797 81.593 481.844 82.307C481.891 83.0217 481.929 83.7363 481.958 84.451C481.987 85.1663 482.007 85.882 482.019 86.598C482.03 87.3133 482.033 88.029 482.026 88.745C481.879 110.526 473.298 133.219 457.615 148.618C456.882 149.337 456.195 150.065 455.24 150.485C457.42 151.777 459.416 154.377 461.034 156.311C462.108 157.572 463.146 158.862 464.148 160.181C465.15 161.5 466.114 162.845 467.041 164.218C467.968 165.591 468.856 166.989 469.704 168.411C470.553 169.834 471.361 171.279 472.129 172.747C472.897 174.215 473.623 175.703 474.308 177.211C474.993 178.72 475.635 180.246 476.234 181.79C476.833 183.335 477.389 184.895 477.901 186.47C478.413 188.045 478.881 189.634 479.304 191.235C479.482 191.925 479.651 192.617 479.812 193.311C479.973 194.006 480.126 194.702 480.27 195.4C480.413 196.097 480.549 196.797 480.676 197.498C480.803 198.199 480.921 198.902 481.03 199.606C481.139 200.311 481.24 201.016 481.333 201.723C481.425 202.43 481.508 203.137 481.583 203.846C481.658 204.555 481.724 205.264 481.782 205.974C481.839 206.685 481.888 207.396 481.928 208.107C481.968 208.818 481.999 209.53 482.022 210.242C482.045 210.955 482.059 211.667 482.064 212.38C482.069 213.093 482.065 213.805 482.053 214.517C482.04 215.23 482.019 215.942 481.99 216.654C481.96 217.366 481.921 218.078 481.874 218.789C481.827 219.5 481.771 220.21 481.706 220.92C481.641 221.629 481.568 222.338 481.486 223.046C481.404 223.754 481.313 224.461 481.214 225.167C481.115 225.872 481.007 226.577 480.89 227.28C480.773 227.983 480.648 228.684 480.514 229.384C480.38 230.084 480.238 230.782 480.087 231.479C479.936 232.175 479.777 232.869 479.609 233.562C479.441 234.255 479.264 234.945 479.079 235.633C478.894 236.321 478.701 237.007 478.499 237.691C478.298 238.374 478.088 239.055 477.869 239.733C477.651 240.412 477.424 241.087 477.189 241.76C476.954 242.433 476.711 243.102 476.46 243.769C476.208 244.436 475.948 245.099 475.681 245.76C475.413 246.421 475.137 247.078 474.854 247.731C474.57 248.384 474.278 249.034 473.979 249.681C473.679 250.328 473.371 250.97 473.056 251.609C472.741 252.248 472.417 252.883 472.086 253.514C471.755 254.145 471.417 254.772 471.07 255.395C470.723 256.018 470.369 256.636 470.008 257.25C469.64 257.871 469.264 258.487 468.881 259.098C468.498 259.709 468.108 260.316 467.71 260.918C467.313 261.52 466.908 262.117 466.495 262.709C466.083 263.301 465.664 263.888 465.237 264.47C464.81 265.051 464.377 265.628 463.936 266.199C463.495 266.77 463.048 267.336 462.593 267.897C462.139 268.457 461.678 269.012 461.21 269.561C460.742 270.11 460.267 270.654 459.786 271.191C459.305 271.728 458.817 272.26 458.323 272.786C457.829 273.311 457.329 273.831 456.822 274.345C456.315 274.858 455.802 275.365 455.283 275.866C454.764 276.367 454.239 276.862 453.708 277.35C453.177 277.838 452.64 278.32 452.097 278.795C451.554 279.27 451.005 279.739 450.451 280.2C449.897 280.662 449.337 281.117 448.772 281.565C448.207 282.013 447.636 282.454 447.059 282.889C446.483 283.323 445.902 283.75 445.316 284.17C444.729 284.59 444.138 285.003 443.541 285.408C442.944 285.814 442.343 286.212 441.737 286.603C441.131 286.994 440.52 287.378 439.904 287.754C439.289 288.13 438.669 288.499 438.044 288.86C437.419 289.221 436.79 289.574 436.157 289.92C435.524 290.265 434.887 290.603 434.246 290.933C433.605 291.264 432.959 291.586 432.31 291.9C431.661 292.215 431.008 292.521 430.351 292.82C429.694 293.118 429.034 293.408 428.37 293.691C427.707 293.974 427.04 294.248 426.369 294.514C425.698 294.78 425.025 295.038 424.348 295.288C423.671 295.538 422.992 295.779 422.309 296.012C421.626 296.245 420.941 296.47 420.253 296.687C419.565 296.904 418.874 297.112 418.181 297.311C417.488 297.511 416.793 297.702 416.095 297.885C407.619 300.033 395.275 300.834 386.511 300.153C382.296 300.817 374.83 300.367 370.228 300.396C359.064 300.464 347.821 300.782 336.664 300.474C320.596 301.062 304.403 300.391 288.312 300.6C285.573 295.043 282.077 289.668 278.964 284.291L261.373 253.772L196.897 141.979C196.002 140.974 195.297 139.368 194.699 138.152C190.268 130.916 186.108 123.493 181.876 116.138C178.948 111.049 175.84 105.998 173.1 100.812L113.987 203.194L95.8 234.554C92.758 239.812 89.934 245.477 86.517 250.489L202.048 250.5C206.043 257.886 210.393 265.113 214.589 272.387L230.878 300.619C223.425 300.349 215.917 300.521 208.458 300.523L169.036 300.526L48.5102 300.53L17.7376 300.529C11.7769 300.535 5.76766 300.694 -0.187744 300.484C4.45366 293.146 8.62506 285.425 12.9742 277.903L36.0552 237.964L101.598 124.398L149.093 42.1544L165.165 14.3942C167.797 9.82829 170.848 5.21139 173.077 0.444092C176.439 7.12679 180.5 13.5896 184.23 20.0771L208.125 61.334L281.151 187.915L305.775 230.556L312.909 242.924C314.341 245.396 315.96 247.872 317.126 250.476L370.505 250.492L386.322 250.509C391.864 250.516 397.491 250.758 402.928 249.489C403.782 249.289 404.628 249.059 405.466 248.8C406.303 248.541 407.131 248.252 407.948 247.934C408.766 247.617 409.572 247.271 410.365 246.896C411.158 246.522 411.937 246.12 412.702 245.691C413.467 245.262 414.216 244.807 414.949 244.325C415.682 243.844 416.397 243.337 417.094 242.805C417.791 242.273 418.469 241.717 419.128 241.137C419.786 240.558 420.423 239.956 421.039 239.331C421.473 238.898 421.896 238.455 422.308 238.002C422.721 237.548 423.122 237.085 423.511 236.612C423.9 236.139 424.278 235.656 424.643 235.164C425.009 234.672 425.362 234.171 425.703 233.662C426.044 233.153 426.373 232.635 426.688 232.11C427.004 231.585 427.307 231.052 427.596 230.512C427.885 229.971 428.161 229.424 428.423 228.871C428.686 228.317 428.934 227.757 429.169 227.191C429.404 226.624 429.625 226.053 429.832 225.476C430.039 224.899 430.231 224.317 430.409 223.731C430.587 223.144 430.75 222.554 430.899 221.959C431.048 221.364 431.183 220.767 431.302 220.166C431.422 219.565 431.527 218.961 431.617 218.354C431.707 217.748 431.782 217.14 431.842 216.53C431.902 215.92 431.947 215.309 431.977 214.697C432.006 214.084 432.021 213.472 432.021 212.859C432.016 212.25 431.997 211.642 431.962 211.034C431.927 210.426 431.878 209.819 431.814 209.214C431.749 208.609 431.67 208.005 431.576 207.404C431.482 206.803 431.373 206.204 431.25 205.608C431.126 205.012 430.988 204.419 430.835 203.83C430.682 203.241 430.515 202.655 430.334 202.074C430.153 201.493 429.957 200.917 429.747 200.345C429.537 199.774 429.313 199.208 429.076 198.648C428.838 198.087 428.586 197.533 428.321 196.985C428.056 196.437 427.778 195.896 427.486 195.361C427.195 194.827 426.89 194.3 426.573 193.781C426.255 193.262 425.925 192.75 425.582 192.247C425.239 191.744 424.885 191.25 424.518 190.764C424.151 190.279 423.772 189.802 423.381 189.335C422.991 188.868 422.589 188.411 422.176 187.964C421.763 187.517 421.34 187.08 420.905 186.654C413.029 178.817 403.94 176.049 393.087 175.629C390.813 175.928 388.251 175.71 385.946 175.705L371.269 175.669C358.628 175.643 345.856 176.126 333.237 175.609C332.289 175.77 331.157 175.664 330.187 175.663C328.01 170.561 323.571 163.517 320.719 158.345C314.701 147.431 308.825 136.432 302.694 125.581C309.931 125.776 317.188 125.618 324.427 125.608L362.477 125.591L384.024 125.62C390.206 125.629 396.64 125.972 402.72 124.694C408.857 123.403 414.707 120.219 419.384 116.081C419.845 115.673 420.295 115.254 420.735 114.824C421.175 114.393 421.604 113.952 422.022 113.501C422.441 113.05 422.848 112.588 423.243 112.117C423.638 111.645 424.022 111.164 424.394 110.674C424.766 110.183 425.125 109.684 425.472 109.176C425.819 108.668 426.154 108.152 426.476 107.627C426.797 107.102 427.106 106.57 427.402 106.03C427.697 105.49 427.979 104.943 428.248 104.39C428.517 103.836 428.771 103.276 429.012 102.709C429.253 102.143 429.48 101.571 429.693 100.994C429.906 100.416 430.104 99.8333 430.288 99.246C430.472 98.6587 430.641 98.0673 430.796 97.472C430.951 96.876 431.092 96.277 431.217 95.675C431.342 95.0723 431.453 94.467 431.548 93.859C431.644 93.251 431.725 92.641 431.79 92.029C431.855 91.417 431.906 90.8037 431.941 90.189C431.974 89.5843 431.991 88.9793 431.994 88.374C431.997 87.7687 431.985 87.1637 431.958 86.559C431.931 85.9537 431.89 85.3497 431.833 84.747C431.776 84.1443 431.705 83.5433 431.619 82.944C431.532 82.3447 431.431 81.7477 431.316 81.153C431.201 80.559 431.071 79.968 430.926 79.38C430.781 78.792 430.622 78.208 430.449 77.628C430.276 77.048 430.088 76.4727 429.887 75.902C429.686 75.3307 429.47 74.765 429.241 74.205C429.012 73.6443 428.769 73.09 428.512 72.542C428.255 71.9933 427.985 71.4517 427.702 70.917C427.419 70.3817 427.122 69.8537 426.813 69.333C426.504 68.813 426.182 68.3007 425.848 67.796C425.513 67.2913 425.167 66.795 424.808 66.307C424.449 65.8197 424.078 65.3413 423.696 64.872C423.313 64.4027 422.92 63.943 422.515 63.493C415.128 55.2442 405.933 51.368 395.016 50.7767C389.53 51.1775 383.641 50.8335 378.131 50.7625C357.869 51.2964 337.454 50.8102 317.176 50.8106L279.523 50.8117C272.834 50.8115 266.103 50.9642 259.419 50.7695C256.967 45.9226 254.06 41.2372 251.336 36.5357C244.428 24.6156 237.173 12.7877 230.618 0.676594Z" fill="black"/>
<path d="M247.715 188.44L248.377 188.664C248.594 190.044 246.473 191.922 245.726 193.052L245.59 193.26C244.984 192.858 244.734 192.764 244.413 192.096C244.785 190.518 246.516 189.435 247.715 188.44Z" fill="black"/>
<path d="M158.314 277.712C158.74 277.921 158.74 278.038 158.959 278.469C158.79 280.089 156.521 281.506 155.381 282.581C155.127 282.273 154.988 281.997 154.801 281.645C155.036 279.972 157.071 278.716 158.314 277.712Z" fill="black"/>
<path d="M129.141 103.284C129.374 103.321 129.672 103.473 129.895 103.56L130.121 104.143C129.79 105.63 128.254 106.477 127.066 107.24C126.657 107.132 126.681 107.056 126.428 106.74C126.677 105.354 128.162 104.198 129.141 103.284Z" fill="black"/>
</g>
<defs>
<clipPath id="clip0_406_170">
<rect width="482" height="301" fill="white"/>
</clipPath>
</defs>
</svg>
