<svg width="24" height="28" viewBox="0 0 24 28" fill="none" xmlns="http://www.w3.org/2000/svg">
<path fill-rule="evenodd" clip-rule="evenodd" d="M13.5236 0.977733L13.5267 0.980815C14.2799 1.71481 14.7143 2.78154 14.7067 3.84321L14.7066 3.85052C14.6837 5.03784 14.5844 6.44698 14.4746 7.6904C14.7948 7.5965 15.1289 7.54819 15.467 7.54819C16.3248 7.54819 17.1441 7.86069 17.7856 8.40938C18.4268 7.86062 19.2459 7.54819 20.1037 7.54819C21.0632 7.54819 21.9674 7.92875 22.644 8.6165C23.3184 9.30196 23.6962 10.2116 23.6923 11.1839L23.6923 18.2724C23.6923 21.0392 22.6682 23.4556 20.7195 25.2347L20.6311 25.3144C18.7559 26.9896 16.1744 27.9285 13.3724 27.9933L13.3776 27.9934C13.256 28.0002 13.1378 28 13.0387 28C12.8157 28 12.0648 27.9767 11.9 27.9701L11.9083 27.9704C10.2561 27.9283 8.11113 27.8793 6.07631 27.0204L6.08943 27.0253C3.81831 26.1795 2.10715 24.8689 1.07163 23.1008C-0.014904 21.2564 -0.0801282 19.375 0.0473404 18.1355L0.0474678 18.1343C0.171269 16.9541 0.599979 15.9487 1.35947 15.1036C1.31473 11.5095 0.906703 8.29745 0.104546 4.78022L0.105557 4.78457C-0.345018 2.87438 0.748509 0.848483 2.5922 0.274566L2.59587 0.273438L2.59955 0.272332C3.49254 0.00712745 4.44005 0.119722 5.26268 0.590305L5.26664 0.592591C6.14927 1.10663 6.81874 2.00134 7.08151 3.00476C7.22343 3.57109 7.34999 4.14176 7.4787 4.71127C7.48993 4.39891 7.49818 4.08475 7.50365 3.76858C7.53035 1.8066 9.07576 0.110142 10.9952 0.00390582L10.9977 0.00377399L11.0001 0.00365365C11.9358 -0.0402341 12.831 0.31284 13.5236 0.977733ZM11.1342 1.86592L11.0787 1.86716L11.0312 1.87064C10.1461 1.94915 9.38064 2.76241 9.34379 3.73817L9.34249 3.79254L9.34241 3.79813C9.29097 6.49204 9.04903 9.08015 8.60096 11.689C9.47128 11.8795 10.1957 12.4424 10.7199 13.1553C11.4755 14.1847 11.7508 15.4146 11.4593 16.6085C11.001 18.4082 9.47612 19.6655 7.88265 20.4414C7.65349 20.5475 7.39542 20.5627 7.15833 20.4705C6.95801 20.3911 6.7877 20.2444 6.68119 20.0551C6.55714 19.8202 6.52412 19.5538 6.61138 19.2991C6.68647 19.0799 6.8478 18.8719 7.08563 18.7565C8.59831 18.0232 9.45018 17.0763 9.67449 16.1644L9.6735 16.1685C9.83369 15.497 9.64745 14.8261 9.24398 14.2802C8.75723 13.6203 8.27325 13.4684 7.82053 13.4929C7.30967 13.5205 6.75566 13.7789 6.19088 14.1217L6.18845 14.1231C4.45068 15.1664 2.16246 15.9596 1.89543 18.2841C1.89559 18.3009 1.89457 18.3177 1.89283 18.3345C1.81535 19.0844 1.81994 20.3679 2.43486 21.6797C3.04107 22.973 4.26884 24.3561 6.75106 25.2832L6.7601 25.2861C6.76402 25.2873 6.76793 25.2886 6.77183 25.2899L6.81063 25.303C6.82323 25.3072 6.83568 25.3119 6.84797 25.317C8.49951 26.0013 10.281 26.0632 11.8248 26.0995L11.9529 26.1025L11.971 26.1032C12.4138 26.1272 12.8593 26.1392 13.3028 26.1323L13.3219 26.1319C18.4266 26.0075 21.8469 22.7419 21.8469 18.279L21.8429 16.2816C21.3126 16.5808 20.7094 16.746 20.094 16.746C19.2362 16.746 18.417 16.4335 17.7756 15.8849C17.1344 16.4335 16.3151 16.746 15.4573 16.746C14.65 16.746 13.9474 16.3322 13.4373 15.9307C12.9219 15.5251 12.5091 15.0532 12.3223 14.8575C12.1653 14.6932 11.8992 14.2982 11.9796 13.7896C12.4156 11.0318 12.7763 6.64199 12.8356 3.96985L12.8387 3.81713C12.8437 3.25643 12.6099 2.69137 12.2273 2.31804L12.2292 2.31983C11.9129 2.01879 11.5219 1.86459 11.1342 1.86592ZM20.0972 9.41971C19.6218 9.41971 19.1672 9.62177 18.8441 9.96025C18.985 10.3544 19.0556 10.7661 19.0556 11.188V13.1225C19.0556 13.5407 18.9862 13.9569 18.8473 14.35C19.1728 14.6939 19.6202 14.8903 20.0988 14.8908C21.0559 14.8908 21.8404 14.0979 21.8404 13.1225V11.2109C21.8404 11.1465 21.8402 11.1086 21.8378 11.0733L21.8364 11.0558L21.8356 11.0463L21.8311 10.9951C21.7394 10.11 20.9872 9.41971 20.0972 9.41971ZM15.4573 9.41645C15.0229 9.41645 14.6077 9.58283 14.2839 9.88501L14.2385 9.92856L14.2376 9.93693C14.0872 11.28 13.9261 12.529 13.7668 13.5788C13.9711 14.346 14.6656 14.8908 15.4573 14.8908C16.416 14.8908 17.2005 14.0979 17.2005 13.1225V11.1847C17.2005 10.2093 16.416 9.41645 15.4573 9.41645ZM3.55843 2.00525C3.41523 2.00525 3.26843 2.02625 3.12593 2.06858L3.13069 2.06712C2.26533 2.33585 1.69353 3.32472 1.89689 4.30889L1.90899 4.36356C1.90931 4.36492 1.90963 4.36629 1.90994 4.36766C2.62072 7.47543 3.03637 10.5344 3.16823 13.6813C3.51661 13.4714 3.87848 13.2737 4.24746 13.0753C4.58009 12.8968 4.91164 12.7157 5.23541 12.5211C5.48645 12.3661 5.99404 12.0492 6.63793 11.8359C6.5451 8.89035 5.97634 6.44126 5.46272 4.2234C5.40855 3.99074 5.3515 3.75882 5.29898 3.52576C5.17335 3.00327 4.83255 2.5301 4.39556 2.25461L4.34267 2.22251C4.09387 2.07745 3.82357 2.00525 3.55843 2.00525Z" fill="black"/>
</svg>
