<svg width="241" height="149" viewBox="0 0 241 149" fill="none" xmlns="http://www.w3.org/2000/svg">
<g clip-path="url(#clip0_3005_320)">
<path d="M252 177H-16V-8H252M129 0V66.25L132.18 72.04L135.37 77.83L139.23 69.89L142.14 64.73L144.36 61.5L145.6 60L148.17 57.07L149.58 55.73L152.45 53.13L153.99 51.97L157.14 49.74L158.8 48.77L162.18 46.92L163.94 46.16L167.52 44.73L169.36 44.19L173.09 43.21L175 42.9L181.39 42.28L185.57 42.29L187.61 42.49L191.65 43.04L193.6 43.49L197.46 44.53L199.32 45.22L202.98 46.71L204.72 47.62L208.14 49.54L209.74 50.64L212.89 52.95L214.36 54.23L217.2 56.89L218.5 58.34L221.01 61.31L222.13 62.9L224.28 66.15L225.2 67.87L226.95 71.37L227.67 73.2L228.98 76.9L229.47 78.82L230.32 82.7L230.57 84.69L230.93 88.7L230.91 90.75L230.74 94.87L230.45 96.95L229.73 101.13L229.14 103.23L227.37 108.45L225.93 111.76L225.08 113.32L223.3 116.39L222.3 117.82L220.23 120.63L219.09 121.94L216.74 124.48L215.48 125.65L212.89 127.91L211.52 128.93L208.72 130.9L207.25 131.77L204.26 133.42L202.71 134.13L199.57 135.47L197.95 136.02L194.68 137.02L193.01 137.4L189.65 138.05L187.94 138.25L184.5 138.55L182.77 138.56L179.3 138.48L177.55 138.3L174.07 137.84L172.33 137.46L168.86 136.6L167.15 136.01L163.72 134.74L162.04 133.94L159.3 132.45L157.37 131.23L156.38 130.52L152.37 127.47L150.45 125.74L146.73 122.21L145.19 120.46L143.72 118.72L143.11 117.89L141.96 116.25L141.54 115.5L140.95 114.45L140.43 113.54L140.13 113L138.78 110.6L137.96 109.15L136.25 106.11L135.33 104.47L133.46 101.15L132.53 99.5L127.62 90.82L124.57 85.49L123.15 83.04L120.37 78.27L119.07 76.09L116.52 71.85L115.32 69.92L112.97 66.17L111.86 64.47L109.69 61.17L108.65 59.68L106.61 56.79L105.63 55.49L103.7 52.98L102.76 51.85L100.9 49.67L99.98 48.69L98.16 46.81L97.26 45.96L93.63 42.83L91.75 41.56L87.93 39.18L85.86 38.17L81.59 36.24L79.2 35.33L75.59 34.18L72.95 33.53L71.56 33.27L65.76 32.4L62.74 32.23L56.67 32.06L53.76 32.25L50.88 32.5L49.52 32.69L46.84 33.12L45.61 33.41L37.33 36.05L32.09 38.4L29.64 39.86L24.85 42.95L22.64 44.74L18.36 48.49L16.44 50.59L12.73 54.93L11.11 57.3L8.03 62.17L6.76 64.78L4.38 70.11L3.47 72.92L1.85 78.64L1.35 81.62L0.9 84.38L0.67 85.99L0.59 86.71L0.33 89.38V90.62L0.42 93.09L0.59 94.52L0.790001 95.99L0.92 96.82L1.2 98.56L1.37 99.56L2.68 105.45L3.84 109.28L4.54 111.15L6.04 114.83L6.91 116.6L8.74 120.09L9.77 121.75L11.9 125.02L13.07 126.56L15.48 129.57L16.79 130.96L19.46 133.68L20.89 134.91L23.81 137.3L25.35 138.36L30.48 141.47L34.27 143.42L36.22 144.27L40.13 145.88L42.01 146.51L45.68 147.63L47.3 147.95L49.08 148.26L50.07 148.38L52.11 148.6L53.2 148.67L57.72 148.86L60.06 148.82L64.73 148.65L66.9 148.42L69.03 148.18L70.01 148.03L71.91 147.69L72.75 147.5L80.25 145.13L85.11 143.01L87.45 141.69L92.03 138.88L94.19 137.24L98.4 133.8L100.34 131.87L103.03 129.2L104.63 127.64L105.28 127.02L106.48 125.89L106.86 125.54L107.49 125H107.53L107.66 125.77L107.74 126.98L107.77 127.86L107.83 129.8L107.85 130.96L107.88 133.41V134.75L107.9 138.71L107.91 141.21L107.92 142.3L107.93 144.34L107.94 145.11L107.95 146.44L107.96 146.75L108.13 147.96L108.46 148.48L108.8 148.64L109.64 148.88L110.32 148.93L111.87 149H118L117.93 123.5L112.02 113.03L110.42 110.23L109.49 108.65L109.1 107.99L108.34 106.78L108.03 106.3L107.43 105.42L107.18 105.09L106.72 104.53L106.53 104.35L106.18 104.08L106.04 104.04L105.59 104.14L105.46 104.53L103.22 109.99L101.31 113.64L100.18 115.41L97.82 118.9L96.52 120.52L93.83 123.65L92.41 125.02L86.65 129.8L82.62 132.44L80.53 133.5L76.31 135.45L74.15 136.17L69.81 137.45L67.61 137.84L63.21 138.47L61.01 138.55L56.61 138.56L54.43 138.33L50.09 137.74L47.97 137.23L43.77 136.06L41.74 135.27L37.73 133.56L35.82 132.51L32.06 130.27L30.31 128.96L26.88 126.23L25.31 124.68L22.26 121.47L20.91 119.7L18.32 116.04L17.21 114.05L15.13 109.97L14.31 107.78L12.81 103.3L12.3 100.92L11.44 96.06L11.27 93.5L11.29 86.72L11.75 82.34L12.2 80.24L13.22 76.1L13.93 74.12L15.47 70.24L16.41 68.4L18.42 64.81L19.58 63.13L22.02 59.85L23.38 58.34L26.19 55.42L27.72 54.1L30.86 51.55L32.54 50.43L35.98 48.29L37.79 47.39L41.46 45.69L43.38 45.01L47.25 43.79L49.25 43.36L53.28 42.63L55.34 42.47L59.47 42.27L61.57 42.38L65.77 42.74L67.87 43.14L72.09 44.09L74.19 44.8L78.38 46.37L80.45 47.4L84.44 49.55L86.85 51.06L87.97 51.89L90.17 53.64L91.23 54.64L93.33 56.76L94.39 58.01L96.52 60.65L97.64 62.22L99.92 65.52L101.16 67.46L103.7 71.57L105.12 73.97L106.56 76.43L107.32 77.76L108.88 80.48L109.71 81.95L113.03 87.81L115.1 91.46L116.08 93.16L117.98 96.48L118.87 98.02L120.61 101.03L121.42 102.43L123.01 105.15L123.76 106.41L125.21 108.86L125.9 110L128.51 114.29L129.66 116.12L131.88 119.58L132.88 121.05L134.81 123.83L135.7 125.02L137.44 127.29L138.28 128.3L139.94 130.22L140.78 131.12L144.5 134.73L147.12 136.93L148.49 137.94L151.28 139.87L152.72 140.74L155.65 142.4L157.16 143.14L160.21 144.53L161.78 145.12L164.93 146.24L166.54 146.69L169.77 147.53L171.42 147.84L174.71 148.4L176.38 148.57L179.72 148.85L181.4 148.88L184.76 148.87L186.44 148.76L189.8 148.47L191.47 148.21L194.82 147.63L196.47 147.23L199.77 146.36L201.4 145.81L204.64 144.64L206.23 143.95L209.39 142.49L210.93 141.65L213.98 139.89L215.46 138.9L221.3 134.48L224.83 131.26L226.41 129.52L229.45 125.97L230.79 124.07L233.33 120.19L234.42 118.15L236.45 113.98L237.27 111.79L238.78 107.35L239.33 105.04L240.3 100.36L240.58 97.93L241 93.03V90.5L240.73 84.49L240.29 80.6L239.94 78.71L239.14 74.98L238.6 73.17L237.45 69.59L236.74 67.86L235.23 64.43L234.34 62.77L232.47 59.5L231.41 57.92L229.18 54.8L227.94 53.29L225.36 50.32L223.94 48.89L219.81 45.15L216.9 42.89L215.37 41.87L212.27 39.92L210.67 39.06L207.41 37.42L205.74 36.72L202.36 35.39L200.63 34.84L197.15 33.83L195.38 33.44L191.84 32.74L190.04 32.51L186.46 32.13L184.66 32.06L181.06 31.99L179.26 32.08L175.68 32.33L173.9 32.58L170.37 33.15L168.63 33.56L165.17 34.45L163.47 35.02L160.12 36.24L158.49 36.96L155.27 38.5L153.71 39.39L150.65 41.26L149.19 42.31L146.32 44.5L144.97 45.72L143.07 47.38L141.91 48.35L141.43 48.74L140.53 49.44L140.21 49.66L139.69 50H139.6L139.48 49.49L139.4 48.66L139.37 48.03L139.3 46.62L139.27 45.72L139.2 43.79L139.18 42.66L139.13 40.28L139.1 38.95L139.06 36.2L139.05 34.71L139 28.44V0H129Z" fill="#EDEEEE" fill-opacity="0.133333"/>
<path d="M47.3 147.95L45.68 147.63L42.01 146.51L40.13 145.88L36.22 144.27L34.27 143.42L30.48 141.47L25.35 138.36L23.81 137.3L20.89 134.91L19.46 133.68L16.79 130.96L15.48 129.57L13.07 126.56L11.9 125.02L9.77 121.75L8.74 120.09L6.91 116.6L6.04 114.83L4.54 111.15L3.84 109.28L2.68 105.45L1.37 99.56L1.2 98.56L0.920002 96.82L0.790003 95.99L0.590002 94.52L0.420002 93.09L0.330002 90.62V89.38L0.590002 86.71L0.670002 85.99L0.900002 84.38L1.35 81.62L1.85 78.64L3.47 72.92L4.38 70.11L6.76 64.78L8.03 62.17L11.11 57.3L12.73 54.93L16.44 50.59L18.36 48.49L22.64 44.74L24.85 42.95L29.64 39.86L32.09 38.4L37.33 36.05L45.61 33.41L46.84 33.12L49.52 32.69L50.88 32.5L53.76 32.25L56.67 32.06L62.74 32.23L65.76 32.4L71.56 33.27L72.95 33.53L75.59 34.18L79.2 35.33L81.59 36.24L85.86 38.17L87.93 39.18L91.75 41.56L93.63 42.83L97.26 45.96L98.16 46.81L99.98 48.69L100.9 49.67L102.76 51.85L103.7 52.98L105.63 55.49L106.61 56.79L108.65 59.68L109.69 61.17L111.86 64.47L112.97 66.17L115.32 69.92L116.52 71.85L119.07 76.09L120.37 78.27L123.15 83.04L124.57 85.49L127.62 90.82L132.53 99.5L133.46 101.15L135.33 104.48L136.25 106.11L137.96 109.15L138.78 110.6L140.13 113L140.43 113.54L140.95 114.45L141.54 115.5L141.96 116.25L143.11 117.89L143.72 118.72L145.19 120.46L146.73 122.21L150.45 125.74L152.37 127.47L156.38 130.52L157.37 131.23L159.3 132.45L162.04 133.94L163.72 134.74L167.15 136.01L168.86 136.6L172.33 137.46L174.07 137.84L177.55 138.3L179.3 138.48L182.77 138.56L184.5 138.55L187.94 138.25L189.65 138.05L193.01 137.4L194.68 137.02L197.95 136.02L199.57 135.47L202.71 134.13L204.26 133.42L207.25 131.77L208.72 130.9L211.52 128.93L212.89 127.91L215.48 125.65L216.74 124.48L219.09 121.94L220.23 120.63L222.3 117.82L223.3 116.39L225.08 113.32L225.93 111.76L227.37 108.45L229.14 103.23L229.73 101.13L230.45 96.95L230.74 94.87L230.91 90.75L230.93 88.7L230.57 84.69L230.32 82.7L229.47 78.82L228.98 76.9L227.67 73.2L226.95 71.37L225.2 67.87L224.28 66.15L222.13 62.9L221.01 61.31L218.5 58.34L217.2 56.89L214.36 54.23L212.89 52.95L209.74 50.64L208.14 49.54L204.72 47.62L202.98 46.71L199.32 45.22L197.46 44.53L193.6 43.49L191.65 43.04L187.61 42.49L185.57 42.29L181.39 42.28L175 42.9L173.09 43.21L169.36 44.19L167.52 44.73L163.94 46.16L162.18 46.92L158.8 48.77L157.14 49.74L153.99 51.97L152.45 53.13L149.58 55.73L148.17 57.07L145.6 60L144.36 61.5L142.14 64.73L139.23 69.89L135.37 77.83L132.18 72.04L129 66.25V33.12V0H134H139V25V28.44L139.05 34.71L139.06 36.2L139.1 38.95L139.13 40.28L139.18 42.66L139.2 43.79L139.27 45.72L139.3 46.62L139.37 48.03L139.4 48.66L139.48 49.49L139.6 50H139.69L140.21 49.66L140.53 49.44L141.43 48.74L141.91 48.35L143.07 47.38L144.97 45.72L146.32 44.5L149.19 42.31L150.65 41.26L153.71 39.39L155.27 38.5L158.49 36.96L160.12 36.24L163.47 35.02L165.17 34.45L168.63 33.56L170.37 33.15L173.9 32.58L175.68 32.33L179.26 32.08L181.06 31.99L184.66 32.06L186.46 32.13L190.04 32.51L191.84 32.74L195.38 33.44L197.15 33.83L200.63 34.84L202.36 35.39L205.74 36.72L207.41 37.42L210.67 39.06L212.27 39.92L215.37 41.87L216.9 42.89L219.81 45.15L223.94 48.89L225.36 50.32L227.94 53.29L229.18 54.8L231.41 57.92L232.47 59.5L234.34 62.77L235.23 64.43L236.74 67.86L237.45 69.59L238.6 73.17L239.14 74.98L239.94 78.71L240.29 80.6L240.73 84.49L241 90.5V93.03L240.58 97.93L240.3 100.36L239.33 105.04L238.78 107.35L237.27 111.79L236.45 113.98L234.42 118.15L233.33 120.19L230.79 124.07L229.45 125.97L226.41 129.52L224.83 131.26L221.3 134.48L215.46 138.9L213.98 139.89L210.93 141.65L209.39 142.49L206.23 143.95L204.64 144.64L201.4 145.81L199.77 146.36L196.47 147.23L194.82 147.63L191.47 148.21L189.8 148.47L186.44 148.76L184.76 148.87L181.4 148.88L179.72 148.85L176.38 148.57L174.71 148.4L171.42 147.84L169.77 147.53L166.54 146.69L164.93 146.24L161.78 145.12L160.21 144.53L157.16 143.14L155.65 142.4L152.72 140.74L151.28 139.87L148.49 137.94L147.12 136.93L144.5 134.73L140.78 131.12L139.94 130.22L138.28 128.3L137.44 127.29L135.7 125.02L134.81 123.83L132.88 121.05L131.88 119.58L129.66 116.12L128.51 114.29L125.9 110L125.21 108.86L123.76 106.41L123.01 105.15L121.42 102.43L120.61 101.03L118.87 98.02L117.98 96.48L116.08 93.16L115.1 91.46L113.03 87.81L109.71 81.95L108.88 80.48L107.32 77.76L106.56 76.43L105.12 73.97L103.7 71.57L101.16 67.46L99.92 65.52L97.64 62.22L96.52 60.65L94.39 58.01L93.33 56.76L91.23 54.64L90.17 53.64L87.97 51.89L86.85 51.06L84.44 49.55L80.45 47.4L78.38 46.37L74.19 44.8L72.09 44.09L67.87 43.14L65.77 42.74L61.57 42.38L59.47 42.27L55.34 42.47L53.28 42.63L49.25 43.36L47.25 43.79L43.38 45.01L41.46 45.69L37.79 47.39L35.98 48.29L32.54 50.43L30.86 51.55L27.72 54.1L26.19 55.42L23.38 58.34L22.02 59.85L19.58 63.13L18.42 64.81L16.41 68.4L15.47 70.24L13.93 74.12L13.22 76.1L12.2 80.24L11.75 82.34L11.29 86.72L11.27 93.5L11.44 96.06L12.3 100.92L12.81 103.3L14.31 107.78L15.13 109.97L17.21 114.05L18.32 116.04L20.91 119.7L22.26 121.47L25.31 124.68L26.88 126.23L30.31 128.96L32.06 130.27L35.82 132.51L37.73 133.56L41.74 135.27L43.77 136.06L47.97 137.23L50.09 137.74L54.43 138.33L56.61 138.56L61.01 138.55L63.21 138.47L67.61 137.84L69.81 137.45L74.15 136.17L76.31 135.45L80.53 133.5L82.62 132.44L86.65 129.8L92.41 125.02L93.83 123.65L96.52 120.52L97.82 118.9L100.18 115.41L101.31 113.64L103.22 109.99L105.46 104.53L105.59 104.14L106.04 104.04L106.18 104.08L106.53 104.35L106.72 104.53L107.18 105.09L107.43 105.42L108.03 106.3L108.34 106.78L109.1 107.99L109.49 108.65L110.42 110.23L112.02 113.03L117.93 123.5L117.96 136.25L118 149H113H111.87L110.32 148.93L109.64 148.88L108.8 148.64L108.46 148.48L108.13 147.96L107.96 146.75L107.95 146.44L107.94 145.11L107.93 144.34L107.92 142.3L107.91 141.21L107.9 138.71L107.88 134.75V133.41L107.85 130.96L107.83 129.8L107.77 127.86L107.74 126.98L107.66 125.77L107.53 125H107.49L106.86 125.54L106.48 125.89L105.28 127.02L104.63 127.64L103.03 129.2L100.34 131.87L98.4 133.8L94.19 137.24L92.03 138.88L87.45 141.69L85.11 143.01L80.25 145.13L72.75 147.5L71.91 147.69L70.01 148.03L69.03 148.18L66.9 148.42L64.73 148.65L60.06 148.82L57.72 148.86L53.2 148.67L52.11 148.6L50.07 148.38L49.08 148.26L47.3 147.95Z" fill="#26292C"/>
</g>
<defs>
<clipPath id="clip0_3005_320">
<rect width="241" height="149" fill="white"/>
</clipPath>
</defs>
</svg>
